<?xml version="1.0" encoding="UTF-8"?> <svg xmlns="http://www.w3.org/2000/svg" viewBox="0 0 116.71 37.88"><defs><style>.cls-1{fill:#fff;}.cls-2{fill:#dc2832;}</style></defs><title>logo</title><g id="Layer_2" data-name="Layer 2"><g id="Layer_1-2" data-name="Layer 1"><path class="cls-1" d="M33.69,17.81l-3.06,1.58-4.08-5.27c-.65,1.79-1.24,3.37-1.88,5.12l-3.29-1.13c.58-1.58,1.1-3,1.61-4.44,1-2.74,1-2.74-.68-5.47l3.06-1.6c1,1.23,1.89,2.42,2.95,3.76.45-1.24.84-2.29,1.25-3.41a14.2,14.2,0,0,1,3.67,1.24,35.08,35.08,0,0,1-1.64,3.72,2.67,2.67,0,0,0,.4,3.61,24,24,0,0,1,1.69,2.29"></path><path class="cls-1" d="M3.65,8.14,7,6.83l1.47,3.79C9.42,9.43,9.62,8,10.35,6.69a13.36,13.36,0,0,1,3.56,1.16c-.87,2-1.64,4-2.58,6a3.35,3.35,0,0,0,0,3.3c.69,1.35,1.22,2.8,1.91,4.42L9.78,23.09,3.65,8.14"></path><path class="cls-1" d="M43.57,19.33,42,16.51l4.89-2.33c-.7-2.43-1.44-4.7-4.62-4.12.19-1.17.34-2.06.52-3.13l4.44.46c.59.06.72.55.91,1,.57,1.35,1.17,2.69,1.75,4,.54.37.86-.44,1.52-.11.33.74.71,1.63,1.06,2.45-.22.62-.81.59-1.21,1l.79,2.18a8.51,8.51,0,0,1-2.81,1.27l-1.11-2.07-4.58,2.19"></path><path class="cls-1" d="M13.18,15.94l3.48-.26A25.14,25.14,0,0,0,17,10.51c-.76-.54-1.73,0-2.54-.71.14-.81.28-1.71.46-2.84l5.86.76V18.46l-7.31.77c-.11-1.13-.21-2.14-.31-3.29"></path><path class="cls-1" d="M41.3,18.68H38c-.27-2.82,0-5.6-.45-8.41H33.78A12.84,12.84,0,0,1,33.73,7l7.57.42Z"></path><path class="cls-1" d="M57.3,18.7H54V10.37l-4-.21c-.56-1,.08-2-.19-3.14,2.52-.27,4.93.47,7.5.28V18.7"></path><path class="cls-1" d="M62.16,18.75,59.33,19c-.6-4.08-.3-8.13-.73-12.29h3.56v12"></path><path class="cls-1" d="M2.23,10.8,0,9.42,1.93,5.33c.76,0,1.2.46,1.8.77-.2,1.58-1,2.94-1.5,4.7"></path><path class="cls-1" d="M63.66,19.18A8.73,8.73,0,0,1,63.58,16c1.65-.33,3.35.15,5-.37v-5c-1.74-.61-3.6-.09-5.32-.75V7c2.86-.16,5.6.46,8.5.51.12,2.63.24,5.13.35,7.59.76.6,1.61.06,2.38.48a7.15,7.15,0,0,1,.12,3c-3.62.54-7.27,0-11,.65"></path><path class="cls-1" d="M67.28,13.92l-2.81.29a5.59,5.59,0,0,1-.09-2.35L67,11.33c.49.83.17,1.66.24,2.59"></path><path class="cls-1" d="M47.92,26.41a6.65,6.65,0,0,0,.48-2.16,7.38,7.38,0,0,0-.82,0,6.46,6.46,0,0,0-2.68.83,4.87,4.87,0,0,0-1.54,1.31.15.15,0,0,0,0,.19,6.77,6.77,0,0,0,4.57,3.35c.17,0,.21.1.15.25-.12.34-.26.68-.39,1a.26.26,0,0,1-.32.14,7.66,7.66,0,0,1-3.27-1.54,8.19,8.19,0,0,1-1.84-2.14.76.76,0,0,1-.1-.55c.08-.52.15-1,.25-1.54a1.05,1.05,0,0,1,.18-.42,5.74,5.74,0,0,1,2.85-2,8.87,8.87,0,0,1,2.33-.43l.8,0a.44.44,0,0,1,.4.21c.24.33.47.67.74,1a1.06,1.06,0,0,1,.22.85,7.76,7.76,0,0,1-.62,2.31c-.23.52-.23.52-.8.65l-.48.11a.78.78,0,0,1-.5,0l-1.35-.46A.23.23,0,0,1,46,27c.14-.3.29-.59.44-.89a.27.27,0,0,1,.34-.1l.94.32.18.06"></path><path class="cls-1" d="M39,24.31a11.29,11.29,0,0,0-2.32.33l-.43.09c-.15,0-.23,0-.26-.16-.06-.32-.11-.63-.16-.95s0-.24.19-.29a12.92,12.92,0,0,1,3.33-.46,6.53,6.53,0,0,1,1.39.12.47.47,0,0,1,.32.25c.14.3.29.59.44.89a.69.69,0,0,1,.07.42,16.83,16.83,0,0,1-.39,2.56,27,27,0,0,1-.9,3.16c-.06.18-.13.22-.32.17l-.9-.25c-.21-.06-.24-.14-.18-.35.2-.7.42-1.39.61-2.09A18.19,18.19,0,0,0,40,24.93c0-.15,0-.29,0-.43s0-.1-.09-.1l-1-.09"></path><path class="cls-1" d="M29.48,27.71a5.79,5.79,0,0,1,.22-1.07,2.3,2.3,0,0,0,.06-.28,2.07,2.07,0,0,1,.77-1.19,14.34,14.34,0,0,1,2.13-1.5c.4-.24.82-.46,1.24-.68.25-.13.34-.1.48.14l.45.77c.13.23.1.36-.14.47a23.92,23.92,0,0,0-2.95,1.69c-.28.2-.53.44-.79.66a.6.6,0,0,0-.2.47.25.25,0,0,0,.09.19,6.41,6.41,0,0,0,.52.39A18.29,18.29,0,0,0,33.48,29h0c.27.14.29.18.17.48s-.25.6-.39.9a.27.27,0,0,1-.38.1,13.62,13.62,0,0,1-2.53-1.55c-.21-.17-.41-.36-.61-.53a.8.8,0,0,1-.29-.66"></path><path class="cls-1" d="M28,30.5l-.85-.15-.24,0c-.15,0-.19-.09-.17-.24s.12-.57.17-.86l.75-3.8c.17-.89.35-1.79.53-2.68,0-.19.1-.24.29-.21l1.1.14a.2.2,0,0,1,.18.26l-.27,1.28c-.24,1.18-.47,2.36-.72,3.53-.18.87-.36,1.73-.55,2.6,0,.13-.08.17-.22.17"></path><path class="cls-1" d="M51.39,27c-.16,0-.33,0-.5,0s-.24-.07-.21-.26.09-.49.13-.73l.48-2.65c0-.15.08-.2.23-.19l1,.12.19,0a.2.2,0,0,1,.18.28c-.08.39-.16.79-.25,1.18l-.42,2c0,.2-.1.25-.31.25h-.48Z"></path><path class="cls-1" d="M21.62,27c-.18,0-.24-.07-.21-.26s.09-.49.13-.73L22,23.36c0-.15.08-.2.23-.19l1,.12.19,0a.21.21,0,0,1,.19.28c-.09.39-.17.79-.25,1.18-.15.67-.29,1.33-.43,2,0,.2-.1.25-.31.25l-1,0"></path><path class="cls-1" d="M71.42,24.71c-.2,0-.41-.07-.61-.08-.5,0-1-.07-1.5-.07a11.33,11.33,0,0,0-2.89.41c-.21.05-.27,0-.31-.2s-.11-.62-.17-.93,0-.3.22-.37A11.8,11.8,0,0,1,68,23.1,13.09,13.09,0,0,1,70.21,23a8,8,0,0,1,1.61.25.49.49,0,0,1,.31.23c.23.42.47.84.72,1.25a.76.76,0,0,1,.1.55A42.33,42.33,0,0,1,71.85,30l-.15.52c-.06.2-.13.25-.34.2l-1-.19c-.16,0-.22-.11-.18-.27l.33-1.18a30.4,30.4,0,0,0,.76-3.27c.06-.33.1-.68.14-1a.4.4,0,0,0,0-.11"></path><path class="cls-1" d="M67.89,27c.16,0,.23.08.2.24-.14.65-.27,1.31-.41,2-.1.46-.19.92-.29,1.38,0,.16-.1.2-.26.16l-1-.23c-.15,0-.19-.08-.17-.24s.08-.5.12-.76c.13-.77.25-1.54.38-2.31,0-.2.07-.23.27-.23l1.21,0"></path><path class="cls-1" d="M63.83,24.85a7.88,7.88,0,0,0-1.53-.05,18.29,18.29,0,0,0-2.33.28l-.82.17a.2.2,0,0,1-.27-.19c0-.3-.08-.59-.11-.88a.21.21,0,0,1,.16-.27c.3-.1.61-.19.92-.27A12,12,0,0,1,62,23.26a5.78,5.78,0,0,1,2.23.14.68.68,0,0,1,.4.32c.2.38.41.76.62,1.14a.76.76,0,0,1,.09.42,10,10,0,0,1-.25,1.64,13.59,13.59,0,0,1-.93,2.76,1.45,1.45,0,0,1-.59.66c-.36.21-.7.43-1.05.66a.71.71,0,0,1-.54.13,21.77,21.77,0,0,1-3.83-.82c-.16,0-.2-.12-.15-.27s.21-.6.33-.89c0-.12.13-.15.29-.12l.77.17,2.18.37.77.11a.12.12,0,0,0,.15-.08,6.44,6.44,0,0,0,.61-1.37,16.47,16.47,0,0,0,.71-3.09l0-.29"></path><path class="cls-1" d="M56.43,27l-.5,0c-.18,0-.24-.07-.21-.26s.09-.49.13-.73l.48-2.65c0-.15.08-.2.23-.19l1,.12.19,0a.21.21,0,0,1,.19.28c-.09.39-.17.79-.25,1.18-.15.67-.29,1.33-.43,2,0,.2-.1.25-.31.25h-.48"></path><path class="cls-1" d="M16.18,28.11l-.32,2a.33.33,0,0,0,.3.38l1.75.17a.34.34,0,0,0,.36-.27l.36-1.8a.33.33,0,0,0-.26-.39l-1.79-.36a.33.33,0,0,0-.4.27"></path><path class="cls-1" d="M28.74,18.66a18.36,18.36,0,0,0-2.1,0,.55.55,0,0,0-.29.37,103.78,103.78,0,0,0-2.52,10.48L23,28.28a.24.24,0,0,0-.33-.07l-.9.58a.24.24,0,0,0-.07.33l1.82,2.72a.54.54,0,0,0,.63.2l.58-.22a.51.51,0,0,0,.34-.4,99.71,99.71,0,0,1,2.55-11.2h1.11a.15.15,0,0,0,.15-.15V18.81a.15.15,0,0,0-.15-.15"></path><path class="cls-2" d="M104.24,9.55c0-.1-.14-.07-.22-.07a12.39,12.39,0,0,0-3.1.14,7.5,7.5,0,0,0-4.1,1.89,27.84,27.84,0,0,1-5.43,3.85,5,5,0,0,1-2.7.76,1.76,1.76,0,0,1-1.41-.61,2.41,2.41,0,0,1,0-2.56,4.12,4.12,0,0,1,1.52-1.29,5.08,5.08,0,0,1,2.4-.41c1.35,0,2.69.15,4,.12a1.91,1.91,0,0,0,1-.23,1,1,0,0,0,.31-1.43,2,2,0,0,0-.91-.8,3.92,3.92,0,0,1-.53-.29.44.44,0,0,1-.06-.68.78.78,0,0,1,.53-.27,3,3,0,0,1,.9,0,9.24,9.24,0,0,0,1.38.15,1.53,1.53,0,0,0,1-.41.76.76,0,0,0-.07-1.22s-.06,0-.06.06c-.22.64-.71.75-1.29.71s-1.13-.21-1.7-.29a2,2,0,0,0-1.93.56A1.12,1.12,0,0,0,94,9a5.64,5.64,0,0,0,.53.31,2.77,2.77,0,0,1,.66.43c.09.1.22.21.15.37s-.23.2-.41.18c-1.37-.13-2.73-.26-4.1-.37a6,6,0,0,0-3.5.61,3.9,3.9,0,0,0-2.12,3.25,3.33,3.33,0,0,0,3.41,3.67c.37,0,.72-.08,1.09-.11a6,6,0,0,1-.2,1.15,1.25,1.25,0,0,0,.27,1.24.86.86,0,0,1-.43,1.46c-.19.06-.39.1-.58.14a.3.3,0,0,0-.25.39c.07.29.13.59.2.88a2.62,2.62,0,0,0,0,.28,2,2,0,0,1-.61,1.77,3,3,0,0,0-.29.32.36.36,0,0,0,0,.51.46.46,0,0,1,0,.66l-.19.29c-.19.33-.11.5.27.52A13.13,13.13,0,0,0,90,27a.86.86,0,0,0,.49-.13A16.18,16.18,0,0,0,90,25.13a2.23,2.23,0,0,1,1.7-2.8,4.36,4.36,0,0,1,1.3,0,8.13,8.13,0,0,1,1.57.47A5.29,5.29,0,0,1,94.87,20c-.25,0-.42-.07-.61-.07A5.67,5.67,0,0,1,92,18a2.51,2.51,0,0,0,1.43-.45,1.47,1.47,0,0,1,2,.14c0-.11,0-.17-.05-.23a2.29,2.29,0,0,1-.21-1.09,1.7,1.7,0,0,1,1.21-1.45,6.8,6.8,0,0,1,3.25-.4.38.38,0,0,1,.31.13,1.59,1.59,0,0,1-.33.39,10.18,10.18,0,0,0-1.06,1.12,1.79,1.79,0,0,0-.18,1.91,2,2,0,0,0,2,1.27,1.91,1.91,0,0,0,1.7-1.45,9.21,9.21,0,0,0,.3-1.65,3.28,3.28,0,0,1,.14-.93,6.47,6.47,0,0,1,2,2.26,2.37,2.37,0,0,1-.47,2.77c-.2.17-.4.36-.59.55a6.21,6.21,0,0,1,.85,2c0,.16.1.24.27.25a1.61,1.61,0,0,1,.66.22,2.15,2.15,0,0,1,.7,2.61,1.65,1.65,0,0,0-.22.68c0,.36,0,.42.37.47a15,15,0,0,0,2.42,0,1.43,1.43,0,0,0,.78-.16.68.68,0,0,0-.15-.38l-.77-1.08a15.39,15.39,0,0,1-1.63-2.73,2.68,2.68,0,0,1,.34-2.91,11,11,0,0,0,.69-1,2.09,2.09,0,0,0,.31-1.49,13.92,13.92,0,0,0-.87-3.06,17.09,17.09,0,0,0-2.63-4.53c-.09-.1-.16-.24-.33-.22"></path><path class="cls-2" d="M94.76,25.72a4.87,4.87,0,0,0,2.23,1,.43.43,0,0,0,.47-.26c.18-.37.38-.74.59-1.09A2.5,2.5,0,0,1,99.74,24a1.85,1.85,0,0,0,1.28-.84c.12-.16.22-.35.44-.4a3.58,3.58,0,0,0,3.32,1,3.19,3.19,0,0,1-.68-.94,3.93,3.93,0,0,0-1.62-2,4.84,4.84,0,0,0,1-.6,1.84,1.84,0,0,0,.67-1.94,4.8,4.8,0,0,0-1-1.93.85.85,0,0,0-.29-.31,7,7,0,0,1-.06,1.38,2.33,2.33,0,0,1-2.47,2.29,2.53,2.53,0,0,1-2.41-1.38c-.61-1.49,0-2.57,1.19-3.44a7.74,7.74,0,0,0-1,.09,4.89,4.89,0,0,0-.93.24A1.77,1.77,0,0,0,96,17.71l.3.76a5.68,5.68,0,0,0-.84-.57,1.53,1.53,0,0,0-1.51,0,2.45,2.45,0,0,1-1.25.32,5.22,5.22,0,0,0,1.34,1.09,2.53,2.53,0,0,0,1.63.31c-.12.31-.22.59-.34.87a2.69,2.69,0,0,0-.18,1.61,2.25,2.25,0,0,1,0,.93,3.64,3.64,0,0,1-.75,1.31.74.74,0,0,0,0,1.08c.1.13.23.23.34.35"></path><path class="cls-2" d="M103.2,28.75a7.08,7.08,0,0,1-1.73-2.21,14.88,14.88,0,0,0-1.13-2c-.07-.1-.11-.21-.29-.15a2.36,2.36,0,0,0-1.4,1.06c-.36.59-.36.59.17,1a2.84,2.84,0,0,1,1.31,1.85c.38.11.41.16.29.48-.06.15-.12.29-.19.43a.52.52,0,0,0,0,.46,10.67,10.67,0,0,0,3.44-.38,1.66,1.66,0,0,0-.46-.56"></path><path class="cls-1" d="M97.65,3.66A15.28,15.28,0,1,1,82.28,18.94,15.33,15.33,0,0,1,97.65,3.66m0-3.66A19,19,0,0,0,84.18,5.55a18.86,18.86,0,0,0,0,26.78,19.13,19.13,0,0,0,26.95,0,18.86,18.86,0,0,0,0-26.78A19,19,0,0,0,97.65,0"></path></g></g></svg> 